<svg width="18" height="24" viewBox="0 0 18 24" fill="none" xmlns="http://www.w3.org/2000/svg">
<path d="M17.4622 17.2602C17.4412 17.2302 15.9052 15.4452 15.9052 15.4452C16.4632 15.034 16.8396 14.4219 16.9545 13.7384C17.0695 13.0548 16.9141 12.3533 16.5212 11.7822C16.4962 11.7462 14.6362 9.69118 14.6362 9.69118C15.1014 9.45655 15.4808 9.08104 15.7202 8.61818C15.9261 8.2217 16.0186 7.7761 15.9875 7.33042C15.9565 6.88474 15.8031 6.45628 15.5442 6.09218C15.5232 6.06018 10.8812 0.80618 10.8812 0.80618C10.6377 0.551371 10.345 0.348562 10.021 0.21C9.6969 0.0714382 9.34811 0 8.99566 0C8.64321 0 8.29442 0.0714382 7.97035 0.21C7.64628 0.348562 7.35366 0.551371 7.11016 0.80618C7.11016 0.80618 2.46716 6.06018 2.44616 6.09018C2.18727 6.45428 2.03386 6.88274 2.0028 7.32842C1.97175 7.7741 2.06426 8.2197 2.27016 8.61618C2.50953 9.07904 2.88888 9.45455 3.35416 9.68918C3.35416 9.68918 1.49516 11.7442 1.46916 11.7802C1.07626 12.3513 0.920854 13.0528 1.03581 13.7364C1.15077 14.4199 1.52708 15.032 2.08516 15.4432C2.08516 15.4432 0.549162 17.2282 0.528162 17.2602C0.218609 17.7103 0.037827 18.2364 0.00531795 18.7817C-0.0271911 19.327 0.0898069 19.8708 0.343691 20.3545C0.597574 20.8382 0.978707 21.2433 1.44597 21.5263C1.91324 21.8093 2.44889 21.9593 2.99516 21.9602H7.99516V22.9602C7.99516 23.2254 8.10052 23.4798 8.28806 23.6673C8.47559 23.8548 8.72995 23.9602 8.99516 23.9602C9.26038 23.9602 9.51473 23.8548 9.70227 23.6673C9.8898 23.4798 9.99516 23.2254 9.99516 22.9602V21.9602H14.9952C15.5418 21.96 16.0779 21.8105 16.5458 21.5279C17.0136 21.2452 17.3953 20.84 17.6497 20.3562C17.9041 19.8724 18.0214 19.3283 17.9891 18.7826C17.9567 18.237 17.7759 17.7106 17.4662 17.2602H17.4622ZM15.8772 19.4272C15.7937 19.5888 15.6671 19.7241 15.5114 19.8182C15.3557 19.9123 15.1771 19.9614 14.9952 19.9602H2.99516C2.81664 19.9604 2.64131 19.9129 2.48737 19.8225C2.33343 19.7321 2.2065 19.6021 2.11976 19.4461C2.03302 19.29 1.98963 19.1136 1.9941 18.9352C1.99856 18.7567 2.05072 18.5827 2.14516 18.4312L4.28016 15.9602H9.99516C10.2604 15.9602 10.5147 15.8548 10.7023 15.6673C10.8898 15.4798 10.9952 15.2254 10.9952 14.9602C10.9952 14.695 10.8898 14.4406 10.7023 14.2531C10.5147 14.0655 10.2604 13.9602 9.99516 13.9602H3.66516C3.54812 13.9602 3.43314 13.9294 3.33176 13.8709C3.23038 13.8124 3.14618 13.7283 3.08761 13.627C3.02904 13.5256 2.99817 13.4107 2.99809 13.2936C2.99801 13.1766 3.02873 13.0616 3.08716 12.9602L5.80916 9.96018H8.99516C9.26038 9.96018 9.51473 9.85482 9.70227 9.66729C9.8898 9.47975 9.99516 9.2254 9.99516 8.96018C9.99516 8.69496 9.8898 8.44061 9.70227 8.25307C9.51473 8.06554 9.26038 7.96018 8.99516 7.96018H4.49516C4.40269 7.96346 4.3112 7.94038 4.23135 7.89364C4.15149 7.84689 4.08658 7.77841 4.04416 7.69618C4.00878 7.63182 3.99107 7.55925 3.99283 7.48583C3.99459 7.41242 4.01575 7.34077 4.05416 7.27818L8.60616 2.12918C8.65385 2.07327 8.71311 2.02837 8.77983 1.99758C8.84656 1.96679 8.91917 1.95085 8.99266 1.95085C9.06615 1.95085 9.13876 1.96679 9.20549 1.99758C9.27222 2.02837 9.33147 2.07327 9.37916 2.12918L13.9292 7.27718C13.9678 7.33964 13.9892 7.41125 13.9912 7.48469C13.9931 7.55813 13.9755 7.63077 13.9402 7.69518C13.8983 7.77666 13.8344 7.84472 13.7557 7.89159C13.677 7.93845 13.5867 7.96222 13.4952 7.96018H12.6272C12.4347 7.96284 12.247 8.02067 12.0864 8.1268C11.9258 8.23293 11.799 8.38291 11.7211 8.55894C11.6432 8.73497 11.6174 8.92965 11.6469 9.11989C11.6763 9.31013 11.7597 9.48792 11.8872 9.63218L14.9032 12.9602C14.9616 13.0616 14.9923 13.1766 14.9922 13.2936C14.9922 13.4107 14.9613 13.5256 14.9027 13.627C14.8441 13.7283 14.7599 13.8124 14.6586 13.8709C14.5572 13.9294 14.4422 13.9602 14.3252 13.9602H14.1682C13.9779 13.9631 13.7924 14.0198 13.6331 14.1238C13.4738 14.2278 13.3472 14.3748 13.268 14.5478C13.1888 14.7208 13.1602 14.9126 13.1855 15.1012C13.2109 15.2897 13.2891 15.4673 13.4112 15.6132L15.8412 18.4312C15.9354 18.5785 15.9885 18.7485 15.9948 18.9233C16.0011 19.0981 15.9605 19.2714 15.8772 19.4252V19.4272Z" fill="#374957"/>
</svg>
